<svg viewBox="0 0 1024.1244 1004.975879396985" xmlns="http://www.w3.org/2000/svg" version="1.2" style="max-height: 500px" width="1024.1244" height="1004.975879396985">
	<title>Farmsetu-Logo-full</title>
	<defs>
		<clipPath id="cp1" clipPathUnits="userSpaceOnUse">
			<path d="m-151-42h1329v1085h-1329z"/>
		</clipPath>
	</defs>
	<style>
		.s0 { fill: #f08d38;stroke: #e98936;stroke-width: 3 } 
		.s1 { fill: #f08d38;stroke: #f08d38;stroke-width: 3 } 
		.s2 { fill: #005777 } 
		.s3 { fill: #f6821f } 
		.s4 { fill: #008d97 } 
	</style>
	<g clip-path="url(#cp1)" id="Clip-Path: Lines">
		<g id="Lines">
			<g id="Updated_Logo">
				<g id="noun-curve-3131948">
					<path d="m121.5 327.4q0-0.4 0-0.8 0-0.4 0.1-0.8 0-0.3 0.2-0.7 0.1-0.4 0.3-0.7c5.1-10.4 10.7-20.7 16.7-30.7 0.7-1.3 1.9-2.3 3.4-2.6 1.5-0.4 3-0.2 4.3 0.6 1.3 0.7 2.2 2 2.6 3.5 0.3 1.4 0.1 3-0.7 4.3-5.8 9.7-11.3 19.7-16.3 29.9-0.5 1.1-1.4 1.9-2.5 2.5-1.1 0.5-2.4 0.7-3.6 0.5-1.2-0.2-2.2-0.9-3.1-1.8-0.8-0.9-1.3-2-1.4-3.2z" class="s0" id="Path_69"/>
					<path d="m108.9 369.2q1.1 0.4 1.9 1.1 0.8 0.8 1.3 1.8 0.5 1 0.5 2.1 0.1 1.1-0.3 2.2c-3.7 10.6-7.1 21.6-9.9 32.5-0.4 1.3-1.1 2.4-2.2 3.2-1.1 0.7-2.4 1.1-3.7 1-1.3-0.1-2.6-0.7-3.5-1.7-0.9-0.9-1.5-2.1-1.6-3.4q0-0.3 0-0.5 0-0.3 0-0.5 0-0.2 0-0.5 0.1-0.2 0.1-0.4c3-11.3 6.4-22.5 10.3-33.4q0.3-1.1 1.1-1.9 0.7-0.8 1.7-1.3 1-0.5 2.1-0.6 1.2 0 2.2 0.3z" class="s0" id="Path_70"/>
					<path d="m338.1 123.9q0.5 1 0.5 2.1 0.1 1.1-0.3 2.2-0.4 1-1.1 1.8-0.8 0.8-1.8 1.3c-10.3 4.7-20.5 9.9-30.3 15.5-1.3 0.7-2.9 0.9-4.3 0.6-1.5-0.4-2.7-1.4-3.5-2.7-0.7-1.3-0.9-2.9-0.5-4.3 0.5-1.5 1.4-2.7 2.8-3.4 10.1-5.7 20.6-11 31.1-15.9q1-0.4 2.1-0.5 1.2 0 2.2 0.4 1 0.4 1.9 1.1 0.8 0.8 1.2 1.8z" class="s0" id="Path_72"/>
					<path d="m383 112.8c-1.4 0.5-3 0.4-4.3-0.3-1.4-0.7-2.4-1.9-2.8-3.3-0.5-1.4-0.4-3 0.3-4.3 0.7-1.3 1.9-2.3 3.4-2.8 11-3.5 22.3-6.6 33.6-9.3 1.5-0.3 3-0.1 4.3 0.7 1.3 0.8 2.2 2 2.6 3.5 0.3 1.5 0 3-0.8 4.3-0.8 1.2-2.1 2.1-3.5 2.5-11 2.5-22.1 5.6-32.8 9z" class="s0" id="Path_73"/>
					<path d="m263.4 166.6q0.6 0.9 0.9 2 0.3 1 0.1 2.1-0.2 1.1-0.8 2.1-0.5 0.9-1.4 1.6c-9.1 6.7-18.1 13.8-26.6 21.2-1.2 1-2.6 1.4-4.1 1.3-1.5-0.1-2.8-0.8-3.8-1.9-1-1.1-1.5-2.6-1.4-4 0.1-1.5 0.8-2.9 1.9-3.9 8.8-7.6 18-14.9 27.3-21.7q0.9-0.7 2-1 1.1-0.2 2.2-0.1 1.1 0.2 2.1 0.8 0.9 0.6 1.6 1.5z" class="s0" id="Path_74"/>
					<path d="m167.1 254.4q0-0.5 0-1.1 0.1-0.5 0.2-1 0.2-0.5 0.4-1 0.3-0.4 0.6-0.8c7.1-9.2 14.6-18.2 22.4-26.8 1-1.1 2.4-1.7 3.9-1.8 1.5-0.1 2.9 0.4 4 1.4 1.1 1 1.8 2.4 1.9 3.9 0 1.5-0.5 2.9-1.5 4-7.6 8.4-14.9 17.2-21.9 26.1-0.7 0.9-1.6 1.6-2.7 1.9-1 0.4-2.2 0.4-3.3 0.1-1.1-0.4-2-1-2.7-1.9-0.7-0.8-1.2-1.9-1.3-3z" class="s0" id="Path_75"/>
				</g>
				<g id="noun-curve-3131948-2">
					<path d="m121.6 673.3c0.1-1.2 0.6-2.3 1.4-3.2 0.8-0.9 1.9-1.6 3.1-1.8 1.2-0.2 2.5 0 3.5 0.5 1.1 0.6 2 1.5 2.6 2.5 5 10.2 10.4 20.2 16.2 29.9 0.8 1.3 0.9 2.8 0.6 4.2-0.4 1.4-1.3 2.7-2.6 3.4-1.2 0.8-2.7 1-4.1 0.6-1.5-0.3-2.7-1.2-3.5-2.4-5.9-10-11.5-20.3-16.7-30.7q-0.1-0.3-0.3-0.7-0.1-0.4-0.2-0.7 0-0.4-0.1-0.8 0-0.4 0.1-0.8z" class="s0" id="Path_69-2"/>
					<path d="m109 631.5q-1.1 0.3-2.2 0.3-1.1-0.1-2.1-0.6-1-0.4-1.7-1.3-0.8-0.8-1.2-1.9c-3.8-10.9-7.2-22.1-10.2-33.3q-0.1-0.3-0.1-0.5 0-0.3-0.1-0.5 0-0.2 0-0.5 0-0.2 0-0.5c0.1-1.3 0.7-2.5 1.7-3.4 0.9-1 2.1-1.5 3.4-1.7 1.4-0.1 2.7 0.3 3.7 1 1.1 0.8 1.9 1.9 2.2 3.2 2.9 10.9 6.3 21.9 10 32.5q0.4 1.1 0.3 2.2-0.1 1.1-0.5 2.1-0.5 1-1.3 1.8-0.9 0.7-1.9 1.1z" class="s0" id="Path_70-2"/>
					<path d="m338.2 876.8q-0.5 1-1.3 1.8-0.8 0.8-1.8 1.1-1.1 0.4-2.2 0.4-1.1-0.1-2.1-0.5c-10.6-4.9-21-10.2-31.2-15.9-1.3-0.7-2.3-1.9-2.7-3.4-0.4-1.4-0.3-3 0.5-4.3 0.7-1.3 2-2.3 3.4-2.7 1.5-0.3 3-0.1 4.3 0.6 9.9 5.6 20.1 10.8 30.4 15.5q1 0.5 1.7 1.3 0.8 0.8 1.2 1.9 0.3 1 0.3 2.1 0 1.1-0.5 2.1z" class="s0" id="Path_72-2"/>
					<path d="m383 887.9c10.8 3.4 21.8 6.5 32.8 9.1 1.5 0.3 2.8 1.2 3.6 2.4 0.8 1.3 1 2.8 0.7 4.3-0.3 1.5-1.3 2.7-2.5 3.5-1.3 0.8-2.8 1-4.3 0.7-11.3-2.7-22.6-5.8-33.7-9.3-1.4-0.5-2.6-1.5-3.3-2.8-0.7-1.3-0.8-2.9-0.4-4.3 0.5-1.4 1.5-2.6 2.8-3.3 1.4-0.7 2.9-0.8 4.3-0.3z" class="s0" id="Path_73-2"/>
					<path d="m263.4 834.1q-0.6 0.9-1.6 1.5-0.9 0.6-2 0.8-1.1 0.1-2.2-0.1-1.1-0.3-2-1c-9.3-6.8-18.5-14.1-27.3-21.7-1.1-1-1.8-2.4-1.9-3.9-0.1-1.4 0.4-2.9 1.4-4 0.9-1.1 2.3-1.8 3.8-1.9 1.4-0.1 2.9 0.3 4 1.3 8.6 7.4 17.5 14.5 26.6 21.2q0.9 0.7 1.5 1.6 0.6 1 0.8 2.1 0.1 1.1-0.1 2.2-0.3 1-1 1.9z" class="s0" id="Path_74-2"/>
					<path d="m167.2 746.3c0.1-1.1 0.5-2.2 1.2-3 0.7-0.9 1.7-1.5 2.8-1.9 1.1-0.3 2.2-0.3 3.3 0.1 1.1 0.3 2 1 2.7 1.9 6.9 8.9 14.3 17.7 21.9 26.1 1 1.1 1.5 2.5 1.4 4 0 1.5-0.7 2.9-1.8 3.9-1.1 1-2.6 1.5-4 1.4-1.5 0-2.9-0.7-3.9-1.8-7.8-8.6-15.4-17.6-22.5-26.8q-0.3-0.4-0.5-0.8-0.3-0.5-0.4-1-0.2-0.5-0.2-1-0.1-0.5 0-1.1z" class="s0" id="Path_75-2"/>
				</g>
				<g id="noun-curve-3131948-3">
					<path d="m904.5 327.3c-0.1 1.2-0.6 2.4-1.4 3.3-0.8 0.9-1.9 1.5-3.1 1.7-1.2 0.2-2.5 0.1-3.6-0.5-1.1-0.5-2-1.4-2.5-2.5-5-10.1-10.5-20.2-16.3-29.9-0.8-1.3-1-2.8-0.7-4.3 0.4-1.5 1.3-2.7 2.6-3.5 1.3-0.8 2.9-1 4.3-0.6 1.5 0.4 2.7 1.3 3.4 2.7 6 9.9 11.6 20.2 16.7 30.6q0.2 0.4 0.3 0.7 0.2 0.4 0.2 0.8 0.1 0.3 0.1 0.7 0 0.4 0 0.8z" class="s1" id="Path_69-3"/>
					<path d="m917.1 369.2q1-0.4 2.2-0.3 1.1 0 2.1 0.5 1 0.5 1.7 1.3 0.8 0.8 1.1 1.9c3.9 10.9 7.3 22.2 10.3 33.4q0 0.2 0.1 0.5 0 0.2 0 0.4 0.1 0.3 0.1 0.5 0 0.3-0.1 0.5c-0.1 1.3-0.7 2.5-1.6 3.5-0.9 0.9-2.2 1.5-3.5 1.6-1.3 0.1-2.6-0.3-3.7-1-1.1-0.8-1.8-1.9-2.2-3.2-2.8-10.9-6.2-21.9-9.9-32.5q-0.4-1.1-0.3-2.2 0-1.1 0.5-2.1 0.5-1 1.3-1.7 0.8-0.8 1.9-1.1z" class="s1" id="Path_70-3"/>
					<path d="m687.9 123.8q0.4-1 1.3-1.8 0.8-0.7 1.8-1.1 1.1-0.4 2.2-0.4 1.1 0.1 2.1 0.6c10.5 4.8 21 10.1 31.1 15.8 1.4 0.7 2.4 1.9 2.8 3.4 0.4 1.4 0.2 3-0.5 4.3-0.8 1.3-2 2.3-3.5 2.7-1.4 0.4-3 0.2-4.3-0.6-9.8-5.6-20-10.8-30.3-15.5q-1-0.4-1.8-1.3-0.7-0.8-1.1-1.8-0.4-1.1-0.3-2.2 0-1.1 0.5-2.1z" class="s1" id="Path_72-3"/>
					<path d="m643 112.7c-10.7-3.4-21.8-6.5-32.8-9-1.4-0.3-2.7-1.2-3.5-2.5-0.8-1.3-1.1-2.8-0.7-4.3 0.3-1.4 1.2-2.7 2.5-3.5 1.3-0.7 2.8-1 4.3-0.6 11.3 2.6 22.6 5.7 33.6 9.3 1.5 0.4 2.7 1.4 3.4 2.7 0.7 1.4 0.8 2.9 0.3 4.3-0.4 1.5-1.4 2.7-2.8 3.3-1.3 0.7-2.9 0.8-4.3 0.3z" class="s1" id="Path_73-3"/>
					<path d="m762.6 166.5q0.7-0.9 1.6-1.5 1-0.6 2.1-0.7 1.1-0.2 2.2 0.1 1.1 0.2 2 0.9c9.3 6.8 18.5 14.2 27.3 21.8 1.1 0.9 1.8 2.3 1.9 3.8 0.1 1.5-0.4 2.9-1.4 4-0.9 1.1-2.3 1.8-3.8 1.9-1.5 0.2-2.9-0.3-4-1.3-8.6-7.4-17.6-14.5-26.7-21.2q-0.9-0.6-1.4-1.6-0.6-0.9-0.8-2-0.2-1.1 0.1-2.2 0.3-1.1 0.9-2z" class="s1" id="Path_74-3"/>
					<path d="m858.9 254.3c-0.1 1.1-0.5 2.2-1.3 3.1-0.7 0.8-1.6 1.5-2.7 1.8-1.1 0.3-2.3 0.3-3.3-0.1-1.1-0.3-2-1-2.7-1.9-6.9-8.9-14.3-17.7-21.9-26-1-1.1-1.5-2.6-1.5-4.1 0.1-1.4 0.8-2.8 1.9-3.8 1.1-1 2.5-1.6 4-1.5 1.5 0.1 2.9 0.7 3.9 1.8 7.8 8.6 15.3 17.6 22.4 26.8q0.4 0.4 0.6 0.9 0.2 0.4 0.4 0.9 0.1 0.5 0.2 1.1 0 0.5 0 1z" class="s1" id="Path_75-3"/>
				</g>
				<g id="noun-curve-3131948-4">
					<path d="m904.6 673.3q0 0.4 0 0.7 0 0.4-0.1 0.8-0.1 0.4-0.2 0.7-0.1 0.4-0.3 0.7c-5.1 10.4-10.7 20.8-16.7 30.7-0.8 1.2-2 2.1-3.4 2.5-1.4 0.3-2.9 0.1-4.2-0.7-1.2-0.7-2.1-1.9-2.5-3.3-0.4-1.4-0.2-2.9 0.5-4.2 5.8-9.7 11.3-19.8 16.3-29.9 0.5-1.1 1.4-2 2.5-2.5 1.1-0.6 2.3-0.8 3.5-0.5 1.2 0.2 2.3 0.8 3.1 1.7 0.9 0.9 1.4 2.1 1.5 3.3z" class="s0" id="Path_69-4"/>
					<path d="m917.2 631.4q-1.1-0.4-1.9-1.1-0.8-0.7-1.3-1.7-0.5-1-0.6-2.2 0-1.1 0.3-2.1c3.8-10.7 7.1-21.6 10-32.6 0.3-1.2 1.1-2.3 2.2-3.1 1.1-0.8 2.4-1.1 3.7-1 1.3 0.1 2.5 0.7 3.5 1.6 0.9 0.9 1.5 2.2 1.6 3.5q0 0.2 0 0.5 0 0.2 0 0.4 0 0.3-0.1 0.5 0 0.3-0.1 0.5c-2.9 11.2-6.4 22.5-10.2 33.4q-0.4 1-1.1 1.9-0.8 0.8-1.8 1.3-1 0.5-2.1 0.5-1.1 0.1-2.1-0.3z" class="s0" id="Path_70-4"/>
					<path d="m687.9 876.8q-0.4-1-0.5-2.1 0-1.2 0.4-2.2 0.4-1 1.1-1.9 0.8-0.8 1.8-1.2c10.3-4.8 20.5-10 30.3-15.5 1.3-0.8 2.9-1 4.3-0.6 1.5 0.4 2.7 1.3 3.5 2.7 0.7 1.3 0.9 2.8 0.4 4.3-0.4 1.4-1.4 2.6-2.7 3.4-10.1 5.6-20.6 11-31.1 15.8q-1.1 0.5-2.2 0.5-1.1 0.1-2.1-0.3-1.1-0.4-1.9-1.2-0.8-0.7-1.3-1.7z" class="s0" id="Path_72-4"/>
					<path d="m643.1 887.8c1.4-0.4 3-0.3 4.3 0.3 1.3 0.7 2.4 1.9 2.8 3.3 0.5 1.5 0.3 3-0.4 4.4-0.7 1.3-1.9 2.3-3.3 2.7-11 3.5-22.4 6.7-33.7 9.3-1.4 0.4-3 0.1-4.2-0.6-1.3-0.8-2.2-2.1-2.6-3.6-0.3-1.4-0.1-3 0.7-4.2 0.8-1.3 2.1-2.2 3.6-2.5 11-2.6 22-5.6 32.8-9.1z" class="s0" id="Path_73-4"/>
					<path d="m762.7 834.1q-0.7-0.9-0.9-2-0.3-1.1-0.1-2.2 0.2-1.1 0.7-2 0.6-1 1.5-1.7c9.1-6.6 18.1-13.7 26.6-21.2 1.2-0.9 2.6-1.4 4.1-1.3 1.5 0.1 2.8 0.8 3.8 1.9 1 1.2 1.4 2.6 1.3 4.1-0.1 1.5-0.7 2.8-1.9 3.8-8.8 7.6-17.9 14.9-27.3 21.8q-0.9 0.6-2 0.9-1 0.3-2.1 0.1-1.1-0.2-2.1-0.7-0.9-0.6-1.6-1.5z" class="s0" id="Path_74-4"/>
					<path d="m859 746.3q0 0.5-0.1 1 0 0.5-0.2 1-0.1 0.5-0.3 1-0.3 0.5-0.6 0.9c-7.1 9.2-14.6 18.2-22.5 26.7-1 1.1-2.3 1.8-3.8 1.9-1.5 0-3-0.5-4.1-1.5-1.1-1-1.7-2.4-1.8-3.9-0.1-1.4 0.5-2.9 1.5-4 7.6-8.4 14.9-17.1 21.8-26.1 0.7-0.9 1.7-1.5 2.7-1.9 1.1-0.3 2.3-0.3 3.4 0 1 0.3 2 0.9 2.7 1.8 0.7 0.9 1.2 2 1.3 3.1z" class="s0" id="Path_75-4"/>
				</g>
			</g>
		</g>
	</g>
	<rect rx="22" height="106" width="106" y="40" x="460" class="s2" id="Rectangle_66"/>
	<rect rx="22" height="106" width="106" y="447" x="39" class="s2" id="Rectangle_66 copy 2"/>
	<rect rx="22" height="106" width="106" y="447" x="876" class="s2" id="Rectangle_66 copy 3"/>
	<rect rx="22" height="106" width="106" y="851" x="460" class="s2" id="Rectangle_66 copy"/>
	<path d="m1131.5 470h-32.2q-2.8 0-4.6-1.8-1.8-2-1.8-4.6v-166.1q0-2.8 1.8-4.6 1.8-1.8 4.6-1.8h117.5q2.8 0 4.6 1.8 1.8 1.8 1.8 4.6v25.8q0 2.8-1.8 4.6-1.8 1.8-4.6 1.8h-78.9v37.6h73.8q2.8 0 4.6 2 1.8 1.8 1.8 4.6v25.6q0 2.5-1.8 4.6-1.8 1.8-4.6 1.8h-73.8v57.7q0 2.6-1.8 4.6-1.8 1.8-4.6 1.8zm130.5 0h-31.4q-2 0-3.8-1.5-1.6-1.8-1.6-3.9 0-1.2 0.3-2.3l60.1-164q0.7-2.8 3-4.9 2.6-2.3 6.9-2.3h37.8q4.4 0 6.7 2.3 2.5 2.1 3.3 4.9l59.8 164q0.5 1.1 0.5 2.3 0 2.1-1.8 3.9-1.5 1.5-3.8 1.5h-31.4q-3.9 0-5.9-1.8-1.8-2-2.3-3.6l-10-26h-68.2l-9.7 26q-0.5 1.6-2.3 3.6-1.8 1.8-6.2 1.8zm52.4-135.7l-23.7 67.5h47.5zm148.7 135.7h-32.9q-2.9 0-4.6-1.8-1.8-2.1-1.8-4.6v-166.1q0-2.8 1.8-4.6 1.7-1.8 4.6-1.8h69.5q33.2 0 52.1 15.3 18.9 15.1 18.9 42.9 0 18.2-8.7 30.7-8.7 12.5-23 18.9l35 62.9q0.8 1.5 0.8 2.8 0 2-1.8 3.8-1.5 1.6-3.6 1.6h-34q-4.8 0-7.1-2.3-2.3-2.6-3.3-4.6l-29.2-56.3h-26v56.8q0 2.5-2.1 4.6-1.8 1.8-4.6 1.8zm6.7-143.4v44h29.3q12.1 0 17.9-5.9 6.2-5.9 6.2-15.9 0-9.9-5.9-16.1-5.6-6.1-18.2-6.1zm167.7 143.4h-30.7q-2.5 0-4.6-1.8-1.8-2.1-1.8-4.6v-166.1q0-2.8 1.8-4.6 2.1-1.8 4.6-1.8h27.6q4.4 0 6.4 2.3 2 2 2.5 3.3l45 80.5 45-80.5q0.8-1.3 2.6-3.3 2-2.3 6.3-2.3h27.4q2.8 0 4.6 1.8 2 1.8 2 4.6v166.1q0 2.5-2 4.6-1.8 1.8-4.6 1.8h-30.4q-2.8 0-4.9-1.8-1.8-2.1-1.8-4.6v-95.9l-28.6 53.5q-1.3 2.3-3.3 4-2.1 1.8-5.6 1.8h-13.3q-3.6 0-5.6-1.8-2.1-1.7-3.4-4l-28.8-53.5v95.9q0 2.5-1.8 4.6-1.8 1.8-4.6 1.8zm241.2 2.5q-25.6 0-42.4-7.1-16.9-7.4-25.6-19.2-8.7-11.8-9.2-25 0-2.1 1.6-3.6 1.7-1.8 4-1.8h32.2q3.6 0 5.4 1.3 2.1 1.2 3.6 3.3 2 3.8 5.6 7.4 3.8 3.6 10 5.9 6.1 2 14.8 2 14.8 0 22.2-4.6 7.7-4.6 7.7-12.5 0-5.9-4.1-9.5-4.1-3.5-13.3-6.3-8.9-3.1-24-6.2-19.4-4.1-33.2-10.5-13.6-6.6-20.7-17.1-7.2-10.7-7.2-26.5 0-15.6 8.7-27.9 9-12.3 24.8-19.2 15.8-6.9 37.6-6.9 17.6 0 30.9 4.6 13.5 4.6 22.7 12.3 9.2 7.7 13.8 16.4 4.9 8.4 5.1 16.6 0 2-1.5 3.8-1.3 1.5-3.8 1.5h-33.8q-2.8 0-4.8-1-2.1-1-3.6-3.3-1.5-5.6-8.2-9.7-6.4-4.4-16.8-4.4-11.3 0-17.7 4.1-6.1 3.9-6.1 12 0 5.1 3.3 9 3.6 3.8 11.5 6.6 8.2 2.8 22.2 5.9 23.3 4.3 37.6 11 14.3 6.4 21 16.8 6.9 10.3 6.9 25.9 0 17.3-10 29.9-10 12.5-27.3 19.4-17.2 6.6-39.9 6.6zm230.5-2.5h-121.4q-2.8 0-4.6-1.8-1.8-2.1-1.8-4.6v-166.1q0-2.8 1.8-4.6 1.8-1.8 4.6-1.8h119.3q2.9 0 4.6 1.8 1.8 1.8 1.8 4.6v24q0 2.8-1.8 4.6-1.7 1.8-4.6 1.8h-81.5v34.5h75.9q2.8 0 4.6 2 1.8 1.8 1.8 4.6v22.3q0 2.5-1.8 4.6-1.8 1.7-4.6 1.7h-75.9v35.6h83.6q2.8 0 4.6 1.8 1.8 1.7 1.8 4.6v24q0 2.5-1.8 4.6-1.8 1.8-4.6 1.8zm115 0h-33.8q-2.8 0-4.6-1.8-1.7-2.1-1.7-4.6v-132.4h-45.5q-2.8 0-4.6-1.8-1.8-2-1.8-4.6v-27.3q0-2.8 1.8-4.6 1.8-1.8 4.6-1.8h137.4q2.9 0 4.6 1.8 1.8 1.8 1.8 4.6v27.3q0 2.6-1.8 4.6-1.7 1.8-4.6 1.8h-45.4v132.4q0 2.5-1.8 4.6-1.8 1.8-4.6 1.8zm156.6 2.5q-23.2 0-40.6-7.4-17.1-7.7-26.6-23.2-9.4-15.9-9.4-40.2v-104.2q0-2.8 1.7-4.6 1.8-1.8 4.6-1.8h33q2.8 0 4.6 1.8 2 1.8 2 4.6v104q0 16.6 8 25 7.9 8.2 22.5 8.2 14.3 0 22.2-8.2 8.2-8.4 8.2-25v-104q0-2.8 1.8-4.6 2-1.8 4.6-1.8h33.2q2.5 0 4.3 1.8 2.1 1.8 2.1 4.6v104.2q0 24.3-9.5 40.2-9.4 15.5-26.6 23.2-17.1 7.4-40.1 7.4z" aria-label="FARMSETU" class="s2" id="FARMSETU"/>
	<path d="m1095.6 602.5h20.9q14.5 0 21.4 5.3 7 5.4 7 16.3 0 5.3-2.1 9.2-1.9 3.8-5.2 6.3-3.2 2.5-6.8 4.1l21.1 32.3h-14.8l-17.6-29h-10.8v29h-13.1zm20 11h-6.9v22.7h7.4q8.2 0 11.8-2.9 3.6-3 3.6-8.8 0-5.9-3.9-8.4-3.8-2.6-12-2.6zm88.3 51.4v11.1h-41.8v-73.5h41.8v11h-28.6v18.8h26.8v11h-26.8v21.6zm75.8-26.3q0 18.6-10.4 28.1-10.4 9.3-29.1 9.3h-20.7v-73.5h22.9q11.4 0 19.8 4.1 8.3 4.1 12.9 12.2 4.6 8 4.6 19.8zm-13.8 0.4q0-13.2-6.1-19.4-6.1-6.2-17.4-6.2h-9.7v51.6h8q25.2 0 25.2-26zm71.3 25.9v11.1h-41.9v-73.5h41.9v11h-28.7v18.8h26.8v11h-26.8v21.6zm28.7-18.7v29.8h-13v-73.5h41.7v11h-28.7v21.7h26.7v11zm67.4 22.3v7.5h-30.9v-7.5l8.9-3.3v-51.8l-8.9-3.4v-7.5h30.9v7.5l-8.9 3.4v51.8zm75.8-66v73.5h-16.4l-34.8-57.6h-0.4q0.2 4.6 0.4 10 0.3 5.2 0.5 10.6v37h-11.9v-73.5h16.3l34.7 57.3h0.3q-0.1-4.1-0.4-9.5-0.2-5.4-0.3-10.4v-37.4zm44.1 66v7.5h-30.9v-7.5l8.8-3.3v-51.8l-8.8-3.4v-7.5h30.9v7.5l-8.9 3.4v51.8zm75.7-66v73.6h-16.3l-34.9-57.7h-0.4q0.2 4.6 0.4 10 0.4 5.2 0.6 10.6v37.1h-11.9v-73.6h16.3l34.7 57.3h0.3q-0.1-4.1-0.4-9.5-0.2-5.4-0.3-10.4v-37.4zm48.5 44.4v-11.2h27.8v37.4q-5.9 1.9-12 3-6.2 1-14 1-16.7 0-25.7-9.9-9-9.9-9-28 0-11.6 4.5-20 4.5-8.5 13.1-13.1 8.5-4.6 20.8-4.6 6 0 11.6 1.2 5.6 1.3 10.2 3.2l-4.5 10.8q-3.6-1.6-8.2-2.9-4.5-1.2-9.4-1.2-7.6 0-13 3.3-5.5 3.3-8.5 9.4-2.9 5.9-2.9 14.1 0 7.8 2.3 13.8 2.3 6 7.2 9.4 5 3.4 12.9 3.4 3.9 0 6.6-0.5 2.8-0.4 5-0.9v-17.7zm131.7 29.2h-14l-6.7-19.5h-27.7l-6.6 19.5h-14l26.9-73.9h15.1zm-44.8-30.8h20.7l-6.4-18.9q-0.4-1.4-1.2-3.9-0.9-2.5-1.6-5.1-0.7-2.7-1.2-4.4-0.5 2.1-1.4 4.8-0.7 2.7-1.4 5-0.6 2.4-1 3.6zm81.7 1.6v-11.2h27.9v37.4q-5.9 1.9-12.1 2.9-6.2 1.1-14 1.1-16.7 0-25.6-9.9-9-9.9-9-28 0-11.6 4.4-20 4.6-8.5 13.1-13.1 8.5-4.6 20.8-4.6 6.1 0 11.6 1.2 5.6 1.2 10.2 3.2l-4.5 10.8q-3.6-1.6-8.1-2.9-4.6-1.2-9.5-1.2-7.5 0-13 3.3-5.4 3.3-8.4 9.4-2.9 5.9-2.9 14.1 0 7.8 2.3 13.8 2.2 6 7.2 9.4 4.9 3.4 12.8 3.4 4 0 6.6-0.5 2.8-0.4 5.1-0.9v-17.7zm45.4-44.4h20.9q14.5 0 21.4 5.4 7 5.3 7 16.2 0 5.4-2 9.2-2 3.8-5.3 6.4-3.2 2.5-6.8 4l21.1 32.3h-14.8l-17.6-29h-10.7v29h-13.2zm20.1 11.1h-6.9v22.6h7.3q8.2 0 11.8-2.9 3.6-2.9 3.6-8.7 0-6-3.9-8.5-3.8-2.5-11.9-2.5zm71.4 55v7.5h-30.9v-7.5l8.8-3.3v-51.8l-8.8-3.4v-7.6h30.9v7.6l-8.9 3.4v51.8zm44.5-56q-10 0-15.5 7.3-5.6 7.1-5.6 19.5 0 12.6 5.1 19.6 5.2 7 15.9 7 4.6 0 9.1-0.9 4.5-1.1 9.2-2.7v11.2q-4.5 1.9-9.1 2.7-4.6 0.8-10.5 0.8-11.4 0-18.8-4.6-7.4-4.7-11-13.2-3.6-8.5-3.6-20 0-11.1 4-19.5 4-8.6 11.7-13.4 7.9-4.9 19.1-4.9 5.6 0 10.9 1.3 5.5 1.2 10.2 3.6l-4.5 10.8q-3.9-1.8-8.1-3.1-4.2-1.5-8.5-1.5zm79.3-10h13.1v47.5q0 7.7-3.3 13.8-3.2 6.1-9.8 9.7-6.6 3.5-16.7 3.5-14.3 0-21.7-7.4-7.4-7.5-7.4-19.8v-47.3h13.2v46q0 9.1 4 13.2 4.1 4.1 12.3 4.1 8.6 0 12.4-4.4 3.9-4.6 3.9-13zm75.6 73.5h-43.9v-73.5h13.2v62.4h30.7zm37.1-62.4v62.4h-13.2v-62.4h-21.1v-11.1h55.4v11.1zm77.6-11.1h13.1v47.6q0 7.6-3.3 13.8-3.2 6-9.8 9.6-6.6 3.5-16.7 3.5-14.3 0-21.7-7.4-7.5-7.5-7.5-19.8v-47.3h13.2v46q0 9.1 4 13.2 4.2 4.1 12.4 4.1 8.5 0 12.4-4.4 3.9-4.6 3.9-13zm31.7 0h20.9q14.5 0 21.4 5.4 7 5.3 7 16.2 0 5.4-2 9.2-2 3.8-5.3 6.4-3.2 2.5-6.8 4l21.1 32.3h-14.8l-17.6-29h-10.7v29h-13.2zm20.1 11.1h-6.9v22.6h7.3q8.2 0 11.8-2.9 3.6-2.9 3.6-8.7 0-6-3.9-8.5-3.8-2.5-11.9-2.5zm88.3 51.4v11.1h-41.9v-73.6h41.9v11.1h-28.7v18.7h26.8v11h-26.8v21.7z" aria-label="REDEFINING AGRICULTURE" class="s3" id="REDEFINING AGRICULTURE"/>
	<g id="noun-leaf-3483303">
		<path d="m738.8 291c40.6 118.9 25.1 296.2-92.9 365.7-28.4 16.7-95.1 31.4-96.7 27.8 75.6-65.1 132.9-141.2 147.4-243.1-33.4 95.3-98.4 167.2-170.9 234.3-35.2-73.7-15-168.2 48.6-225.1 24.6-22 52-40.8 77.3-62 17.4-14.6 34.6-29.6 49.6-46.4 14.2-15.9 25.4-34.3 37.6-51.2z" class="s4" id="Path_6"/>
		<path d="m268 524.4c113.6-25.8 233.8 11.5 222.6 147.9-28.7-54.2-64.6-96.7-124.9-111.1 53 28.5 87.9 72.1 109.8 127.2-38.8 22.5-81.6 12.8-111.5-26.7-14.2-18.7-24.3-40.5-37.9-59.8-18.7-26.7-39-52.2-58.1-77.5z" class="s4" id="Path_7"/>
	</g>
</svg>